<?xml version="1.0" encoding="utf-8"?>
<!-- Generator: Adobe Illustrator 26.3.1, SVG Export Plug-In . SVG Version: 6.00 Build 0)  -->
<svg version="1.1" id="Warstwa_3" xmlns="http://www.w3.org/2000/svg" xmlns:xlink="http://www.w3.org/1999/xlink" x="0px" y="0px"
	 viewBox="0 0 430 430" style="enable-background:new 0 0 430 430;" xml:space="preserve">
<style type="text/css">
	.st0{fill:url(#SVGID_1_);}
</style>
<linearGradient id="SVGID_1_" gradientUnits="userSpaceOnUse" x1="110.2473" y1="118.0649" x2="358.4095" y2="366.227">
	<stop  offset="0" style="stop-color:#7166ee"/>
	<stop  offset="1" style="stop-color:#c71f16"/>
</linearGradient>
<path class="st0" d="M356.8,204.4h-242L131,196c0,0,0,0,0,0l44.5-22.8c0,0,0,0,0,0l154.5-79.2c1.4-0.7,2.5-2,3-3.5
	c0.5-1.5,0.3-3.2-0.4-4.6L318.4,58c-3.4-6.6-9.1-11.5-16.2-13.8c-7.1-2.3-14.6-1.7-21.2,1.7L82.3,147.9c-6.6,3.4-11.5,9.1-13.8,16.2
	s-1.7,14.6,1.7,21.2l13.6,26.6v138.5c0,15.3,12.5,27.8,27.8,27.8H335c15.3,0,27.8-12.5,27.8-27.8v-140
	C362.8,207.1,360.1,204.4,356.8,204.4z M324.8,216.4l-14.5,42H273l14.5-42H324.8z M274.8,216.4l-14.5,42H223l14.5-42H274.8z
	 M224.8,216.4l-14.5,42H173l14.5-42H224.8z M174.7,216.4l-14.5,42h-37.4l14.5-42H174.7z M124.7,216.4l-14.5,42H95.9v-42H124.7z
	 M286.5,56.7c2.3-1.2,4.7-1.7,7.2-1.7c1.6,0,3.3,0.2,4.8,0.8c4,1.3,7.3,4.1,9.2,7.8L319.3,86l-11.9,6.1L276,62L286.5,56.7z
	 M264.8,67.8l31.3,30.1l-33.2,17l-31.3-30.1L264.8,67.8z M220.2,90.7l31.3,30.1l-33.2,17L187,107.7L220.2,90.7z M175.7,113.5
	l31.3,30.1l-33.2,17l-31.3-30.1L175.7,113.5z M131.2,136.3l31.3,30.1l-33.2,17L98,153.4L131.2,136.3z M81,179.8c-1.9-3.8-2.3-8-1-12
	c1.2-3.6,3.5-6.6,6.7-8.6l31.3,30l-25.5,13.1L81,179.8z M350.8,350.4c0,8.7-7.1,15.8-15.8,15.8H111.7c-8.7,0-15.8-7.1-15.8-15.8v-80
	h254.9V350.4z M350.8,258.4h-27.7l14.5-42h13.2V258.4z M255.7,321.3c0,2-1,3.9-2.6,5L213.3,353c-1,0.7-2.2,1-3.3,1
	c-1,0-1.9-0.2-2.8-0.7c-2-1-3.2-3.1-3.2-5.3v-53.4c0-2.2,1.2-4.3,3.2-5.3c2-1,4.3-0.9,6.2,0.3l39.7,26.7
	C254.7,317.4,255.7,319.3,255.7,321.3z"/>
</svg>
